# xmcd
#
# Track frame offsets:
#	150
#	17945
#	33694
#	47304
#	64247
#	82894
#	98108
#	111657
#	126564
#	143591
#	159050
#	174485
#	191094
#	207477
#	224559
#
# Disc length: 3303 seconds
#
# Revision: 0
# Processed by: cddbd v1.5.1PL0 Copyright (c) Steve Scherf et al.
# Submitted via: audiograbber 1.83.01
#
DISCID=db0ce50f
DTITLE=V - CB60028
DYEAR=1900
DGENRE=Karaoke Country
TTITLE0=Travis Tritt - Anymore
TTITLE1=Reba McEntire - Why Haven't Heart From You
TTITLE2=Aaron Tippin - There Ain't Nothin' Wrong With The Radio
TTITLE3=Toby Keith - Should've Been A Cowboy
TTITLE4=Brooks and Dunn - Lost and Found
TTITLE5=Forester Sisters, The - Men
TTITLE6=Joe Diffie - Third Rock From The Sun
TTITLE7=Dwight Yoakam - Guitars, Cadillacs
TTITLE8=Garth Brooks - If Tomorrow Never Comes
TTITLE9=Holly Dunn - Daddy's Hands
TTITLE10=George Strat - All My Ex's Live In Texas
TTITLE11=Keith Whitley - I'm No Stranger To The Rain
TTITLE12=K T Oslin - Do Ya
TTITLE13=Randy Travis - Forever and Ever, Amen
TTITLE14=Patty Loveless - How Can I Help You Say Goodbye
EXTD=Chartbusters
EXTT0=
EXTT1=
EXTT2=
EXTT3=
EXTT4=
EXTT5=
EXTT6=
EXTT7=
EXTT8=
EXTT9=
EXTT10=
EXTT11=
EXTT12=
EXTT13=
EXTT14=
PLAYORDER=
